<svg width="72" height="72" viewBox="0 0 72 72" fill="none" xmlns="http://www.w3.org/2000/svg">
<path d="M31.0233 0.719971V4.79922H4.91608V29.7643H1V0.719971H31.0233Z" fill="#FFC857"/>
<path d="M4.91608 40.2071H1V70.72H31.0233V66.1512H4.91608V40.2071Z" fill="#FFC857"/>
<path d="M66.7576 66.1512H40.4872V70.72H71V40.2071H66.7576V66.1512Z" fill="#FFC857"/>
<path d="M66.7576 4.79922V29.7643H71V0.719971H40.6503V4.79922H66.7576Z" fill="#FFC857"/>
<path d="M32.655 15.4053H21.8858V36.9437H32.655V34.333H24.6597V27.1535H31.0233V24.5428H24.6597V17.8528H32.655V15.4053Z" fill="#FFC857"/>
<path d="M37.7133 35.1489V33.1908H50.7669V35.1489H45.3823V53.5871H42.7716V35.1489H37.7133Z" fill="#FFC857"/>
<path d="M31.0233 0.719971V4.79922H4.91608V29.7643H1V0.719971H31.0233Z" stroke="#FFC857"/>
<path d="M4.91608 40.2071H1V70.72H31.0233V66.1512H4.91608V40.2071Z" stroke="#FFC857"/>
<path d="M66.7576 66.1512H40.4872V70.72H71V40.2071H66.7576V66.1512Z" stroke="#FFC857"/>
<path d="M66.7576 4.79922V29.7643H71V0.719971H40.6503V4.79922H66.7576Z" stroke="#FFC857"/>
<path d="M32.655 15.4053H21.8858V36.9437H32.655V34.333H24.6597V27.1535H31.0233V24.5428H24.6597V17.8528H32.655V15.4053Z" stroke="#FFC857"/>
<path d="M37.7133 35.1489V33.1908H50.7669V35.1489H45.3823V53.5871H42.7716V35.1489H37.7133Z" stroke="#FFC857"/>
</svg>
